HIERARCHY
ROOT hip
{
  OFFSET 0 0 0
  CHANNELS 6 Xposition Yposition Zposition Zrotation Yrotation Xrotation
  JOINT abdomen
  {
    OFFSET 0 20.6881 -0.73152
    CHANNELS 3 Zrotation Xrotation Yrotation
    JOINT chest
    {
      OFFSET 0 11.7043 -0.48768
      CHANNELS 3 Zrotation Xrotation Yrotation
      JOINT neck
      {
        OFFSET 0 22.1894 -2.19456
        CHANNELS 3 Zrotation Xrotation Yrotation
        JOINT head
        {
          OFFSET -0.24384 7.07133 1.2192
          CHANNELS 3 Zrotation Xrotation Yrotation
          JOINT leftEye
          {
            OFFSET 4.14528 8.04674 8.04672
            CHANNELS 3 Zrotation Xrotation Yrotation
            End Site
            {
              OFFSET 1 0 0
            }
          }
          JOINT rightEye
          {
            OFFSET -3.6576 8.04674 8.04672
            CHANNELS 3 Zrotation Xrotation Yrotation
            End Site
            {
              OFFSET 1 0 0
            }
          }
        }
      }
      JOINT rCollar
      {
        OFFSET -2.68224 19.2634 -4.8768
        CHANNELS 3 Zrotation Xrotation Yrotation
        JOINT rShldr
        {
          OFFSET -8.77824 -1.95073 1.46304
          CHANNELS 3 Zrotation Xrotation Yrotation
          JOINT rForeArm
          {
            OFFSET -28.1742 -1.7115 0.48768
            CHANNELS 3 Zrotation Xrotation Yrotation
            JOINT rHand
            {
              OFFSET -22.5879 0.773209 7.07136
              CHANNELS 3 Zrotation Xrotation Yrotation
              JOINT rThumb1
              {
                OFFSET -1.2192 -0.487915 3.41376
                CHANNELS 3 Zrotation Xrotation Yrotation
                JOINT rThumb2
                {
                  OFFSET -3.37035 -0.52449 3.41376
                  CHANNELS 3 Zrotation Xrotation Yrotation
                  End Site
                  {
                    OFFSET -1.78271 -1.18214 1.43049
                  }
                }
              }
              JOINT rIndex1
              {
                OFFSET -7.75947 0.938293 5.60832
                CHANNELS 3 Zrotation Xrotation Yrotation
                JOINT rIndex2
                {
                  OFFSET -2.54057 -0.884171 1.56538
                  CHANNELS 3 Zrotation Xrotation Yrotation
                  End Site
                  {
                    OFFSET -1.62519 -0.234802 1.16502
                  }
                }
              }
              JOINT rMid1
              {
                OFFSET -8.24714 1.18213 3.41376
                CHANNELS 3 Zrotation Xrotation Yrotation
                JOINT rMid2
                {
                  OFFSET -3.10165 -0.590103 1.0647
                  CHANNELS 3 Zrotation Xrotation Yrotation
                  End Site
                  {
                    OFFSET -2.48547 -0.328903 0.83742
                  }
                }
              }
              JOINT rRing1
              {
                OFFSET -8.82822 0.546677 1.51678
                CHANNELS 3 Zrotation Xrotation Yrotation
                JOINT rRing2
                {
                  OFFSET -2.60934 -0.819778 -0.0198488
                  CHANNELS 3 Zrotation Xrotation Yrotation
                  End Site
                  {
                    OFFSET -2.33842 -0.294052 0.168128
                  }
                }
              }
              JOINT rPinky1
              {
                OFFSET -8.27202 -0.0477905 -0.4584
                CHANNELS 3 Zrotation Xrotation Yrotation
                JOINT rPinky2
                {
                  OFFSET -1.82734 -0.647385 -0.700984
                  CHANNELS 3 Zrotation Xrotation Yrotation
                  End Site
                  {
                    OFFSET -1.69225 -0.51767 -0.607171
                  }
                }
              }
            }
          }
        }
      }
      JOINT lCollar
      {
        OFFSET 2.68224 19.2634 -4.8768
        CHANNELS 3 Zrotation Xrotation Yrotation
        JOINT lShldr
        {
          OFFSET 8.77824 -1.95073 1.46304
          CHANNELS 3 Zrotation Xrotation Yrotation
          JOINT lForeArm
          {
            OFFSET 28.1742 -1.7115 0.48768
            CHANNELS 3 Zrotation Xrotation Yrotation
            JOINT lHand
            {
              OFFSET 22.5879 0.773209 7.07136
              CHANNELS 3 Zrotation Xrotation Yrotation
              JOINT lThumb1
              {
                OFFSET 1.2192 -0.487915 3.41376
                CHANNELS 3 Zrotation Xrotation Yrotation
                JOINT lThumb2
                {
                  OFFSET 3.37035 -0.52449 3.41376
                  CHANNELS 3 Zrotation Xrotation Yrotation
                  End Site
                  {
                    OFFSET 1.78271 -1.18214 1.43049
                  }
                }
              }
              JOINT lIndex1
              {
                OFFSET 7.75947 0.938293 5.60832
                CHANNELS 3 Zrotation Xrotation Yrotation
                JOINT lIndex2
                {
                  OFFSET 2.54057 -0.884171 1.56538
                  CHANNELS 3 Zrotation Xrotation Yrotation
                  End Site
                  {
                    OFFSET 1.62519 -0.234802 1.16502
                  }
                }
              }
              JOINT lMid1
              {
                OFFSET 8.24714 1.18213 3.41376
                CHANNELS 3 Zrotation Xrotation Yrotation
                JOINT lMid2
                {
                  OFFSET 3.10165 -0.590103 1.0647
                  CHANNELS 3 Zrotation Xrotation Yrotation
                  End Site
                  {
                    OFFSET 2.48547 -0.328903 0.83742
                  }
                }
              }
              JOINT lRing1
              {
                OFFSET 8.82822 0.546677 1.51678
                CHANNELS 3 Zrotation Xrotation Yrotation
                JOINT lRing2
                {
                  OFFSET 2.60934 -0.819778 -0.0198488
                  CHANNELS 3 Zrotation Xrotation Yrotation
                  End Site
                  {
                    OFFSET 2.33842 -0.294052 0.168128
                  }
                }
              }
              JOINT lPinky1
              {
                OFFSET 8.27202 -0.0477905 -0.4584
                CHANNELS 3 Zrotation Xrotation Yrotation
                JOINT lPinky2
                {
                  OFFSET 1.82734 -0.647385 -0.700984
                  CHANNELS 3 Zrotation Xrotation Yrotation
                  End Site
                  {
                    OFFSET 1.69225 -0.51767 -0.607171
                  }
                }
              }
            }
          }
        }
      }
    }
  }
  JOINT rButtock
  {
    OFFSET -8.77824 4.35084 1.2192
    CHANNELS 3 Zrotation Xrotation Yrotation
    JOINT rThigh
    {
      OFFSET 0 -1.70687 -2.19456
      CHANNELS 3 Zrotation Xrotation Yrotation
      JOINT rShin
      {
        OFFSET 0 -36.8199 0.73152
        CHANNELS 3 Zrotation Xrotation Yrotation
        JOINT rFoot
        {
          OFFSET 0.73152 -45.1104 -5.12064
          CHANNELS 3 Zrotation Xrotation Yrotation
          End Site
          {
            OFFSET -1.1221 -3.69964 12.103
          }
        }
      }
    }
  }
  JOINT lButtock
  {
    OFFSET 8.77824 4.35084 1.2192
    CHANNELS 3 Zrotation Xrotation Yrotation
    JOINT lThigh
    {
      OFFSET 0 -1.70687 -2.19456
      CHANNELS 3 Zrotation Xrotation Yrotation
      JOINT lShin
      {
        OFFSET 0 -36.8199 0.73152
        CHANNELS 3 Zrotation Xrotation Yrotation
        JOINT lFoot
        {
          OFFSET -0.73152 -45.1104 -5.12064
          CHANNELS 3 Zrotation Xrotation Yrotation
          End Site
          {
            OFFSET 1.1221 -3.69964 12.103
          }
        }
      }
    }
  }
}
MOTION
Frames:	6
Frame Time:	0.00833333
0.0 0.0 0.0 0.0 0.0 0.0 0.0 0.0 0.0 0.0 0.0 0.0 0.0 0.0 0.0 0.0 0.0 0.0 0.0 0.0 0.0 0.0 0.0 0.0 0.0 0.0 0.0 0.0 0.0 0.0 0.0 0.0 0.0 0.0 0.0 0.0 0.0 0.0 0.0 0.0 0.0 0.0 0.0 0.0 0.0 0.0 0.0 0.0 0.0 0.0 0.0 0.0 0.0 0.0 0.0 0.0 0.0 0.0 0.0 0.0 0.0 0.0 0.0 0.0 0.0 0.0 0.0 0.0 0.0 0.0 0.0 0.0 0.0 0.0 0.0 0.0 0.0 0.0 0.0 0.0 0.0 0.0 0.0 0.0 0.0 0.0 0.0 0.0 0.0 0.0 0.0 0.0 0.0 0.0 0.0 0.0 0.0 0.0 0.0 0.0 0.0 0.0 0.0 0.0 0.0 0.0 0.0 0.0 0.0 0.0 0.0 0.0 0.0 0.0 0.0 0.0 0.0 0.0 0.0 0.0 0.0 0.0 0.0 0.0 0.0 0.0 0.0 0.0 0.0 0.0 0.0 0.0
-70.4223 83.66369999999999 -18.590200000000003 89.810946 88.021818 97.807645 -0.849387 -4.177186 125.307956 2.829555 -4.659804 -125.146167 -2.001611 3.681916 -17.842543 2.696956 -1.74493 15.759155 -0.005605 -0.0 0.004106 0.001023 -0.0 -0.000525 -44.918878 -86.28785 -66.526914 90.846659 88.808492 -90.172613 67.610686 -59.274957 59.990241 -76.074518 74.83754 57.977519 -6.77011 6.520765 1.414635 12.40527 -14.398002 -4.566943 -148.888073 -12.608864 120.245516 -155.547757 -2.453968 118.824626 0.541029 -1.589842 -0.296283 -172.077195 -31.344216 144.104018 0.004733 1.771355 0.556692 0.074131 52.588535 12.152582 -167.309845 79.514071 -148.59408 -24.525018 -39.359567 -24.736878 9.651378 34.836332 -11.198547 169.362143 -65.397382 -156.463108 -177.075964 -61.942232 -129.822081 -171.266431 -17.758557 -143.501572 -18.138598 -17.891042 -0.07076 19.129479 17.148941 -5.824108 156.113328 -25.994083 -122.311543 166.996485 -28.722716 -118.812913 86.295258 60.959264 -77.857165 7.211099 26.185978 -6.243411 145.120718 0.226424 179.199865 -12.072755 36.61969 4.848633 -26.858535 80.011707 -10.211748 179.272382 78.750907 139.057036 -179.994596 75.748567 -0.003697 -175.040299 68.811028 -0.0 8.565078 14.462189 105.172118 62.677769 74.705853 -145.575775 179.998363 75.751379 0.001689 -179.329877 64.162643 157.572651 11.009677 -10.658414 134.962395 61.65846 -85.048731 158.897458
-70.03779999999999 83.5873 -18.5011 92.532581 87.991435 100.189028 -0.669892 -3.714087 101.621448 4.778081 -3.658583 -101.336376 -2.797189 7.740863 -30.527053 5.097788 -3.086807 26.449731 -0.001682 0.0 -0.001593 0.003913 -0.0 -0.000393 -157.643521 -66.710604 175.897656 -11.557697 23.195518 -20.586048 -16.410813 82.431081 44.284265 -6.887077 27.220381 1.419263 171.560377 -25.005188 87.392627 -95.932717 20.513921 38.630384 -148.88416 -12.609784 120.246025 -5.492876 28.017488 -1.853534 179.73459 -58.400932 141.961501 -167.5704 -17.322716 143.912452 -71.925996 72.973847 89.771983 4.974799 29.769498 -0.411252 -80.939591 -51.226934 -79.359575 -9.57704 -25.819118 -12.406222 85.537267 68.182121 -88.688926 -62.655374 -33.198381 -62.117829 -38.608268 -61.661291 -49.558013 16.878498 39.102125 -4.336487 12.925635 12.051857 -3.310241 -62.101232 -66.86569 1.156514 162.916192 -37.929232 -122.632675 153.517501 -3.678124 -118.810531 8.416167 20.880607 -5.644626 179.613903 -48.740683 -141.449189 -0.001848 -0.018336 0.007008 156.45333 -43.5216 -177.136639 23.39139 -36.349254 22.493637 -3.164191 -0.031482 0.270697 -179.993075 75.750575 -0.004739 -173.213913 63.956126 172.455357 -6.502994 -19.480211 -94.36487 -16.34653 50.674374 -75.389733 -179.993075 75.750575 -0.004739 -177.336059 58.946854 -3.108765 -7.845356 26.508278 -106.238444 169.507759 24.417413 -121.267081
-69.6365 83.49029999999999 -18.345200000000002 90.356902 88.208839 97.668053 0.94684 -1.569752 31.102927 3.449324 2.652594 -30.920507 -2.020298 10.381182 -32.0956 5.268888 -4.634532 26.148431 0.000566 0.0 8.2e-05 0.000566 0.0 8.2e-05 -82.877637 68.300536 86.000548 53.352671 -7.539854 65.821967 -151.582558 71.214683 86.103544 156.34467 -40.224697 137.105898 178.618944 -18.760066 89.037624 -77.682239 10.420319 23.905374 -140.164118 2.326184 115.877895 -63.59862 56.771983 45.588445 -169.089169 -33.247418 145.375204 -162.262655 -1.44763 142.607068 0.000213 -0.0608 -0.019422 -156.524886 -27.666043 175.091661 -153.765637 43.513122 -148.650875 -156.886628 39.384435 -146.421653 155.548397 -3.804361 -161.89968 172.31283 80.359256 -118.462903 -18.035439 60.789715 -15.659878 11.233976 23.904899 -0.786582 0.491307 0.484814 -0.07718 -39.432817 -62.782539 17.022747 -112.65729 -76.285163 -61.48542 -15.337882 2.261436 6.351683 153.321797 13.629075 -138.862195 163.971369 -7.056291 -143.202599 0.000155 0.022554 -0.007565 154.390815 11.217075 -170.332346 154.164151 45.105499 148.909216 -2.678904 2.46791 1.067522 -0.0 0.001317 0.00052 4.226579 -11.536901 0.0 -7.573857 25.15863 -101.609074 167.921421 5.610634 -84.961067 -179.997631 75.750099 -0.002444 -177.125119 52.239253 -2.238545 -7.218482 34.860681 -96.123375 -29.705681 81.086285 115.826074
-69.3406 83.399 -18.2987 85.737776 88.199568 92.933334 0.163395 -3.594715 83.574142 6.904452 -2.028568 -83.138123 7.024894 9.298445 17.248467 -8.217044 -2.454741 -25.995314 0.003617 0.0 0.001229 0.003617 0.0 0.001229 3.737411 -33.150915 -6.413046 61.827549 -9.64263 -43.377582 107.759477 -33.610021 56.917904 -178.308274 27.584677 147.604755 -168.111525 -5.788864 89.870157 -121.449431 11.531874 57.149113 -19.169554 24.114849 13.380917 -115.63338 39.132041 88.460199 -36.037491 51.722517 29.833088 -11.504003 33.7478 9.361148 -72.965404 -72.142463 -89.990431 -150.451595 25.083534 173.045607 -150.575133 31.03387 -146.36499 -114.262229 -41.235343 -112.240904 -2.185268 -15.733574 3.202853 -39.139472 -70.027339 53.656195 176.59473 -81.558367 -110.83788 -174.617042 -16.875032 -143.339636 2.607495 2.554866 -0.458473 25.186994 20.793246 -23.505458 19.170238 24.11481 -13.380436 115.631826 39.131501 -88.460619 171.869519 -41.091385 -145.159732 -3.045839 0.161629 -0.345303 69.296777 72.947581 -87.0163 80.966806 83.124478 -89.896797 -0.04787 0.125059 -0.044781 147.845902 13.363569 144.09382 0.000932 0.000891 -0.001198 4.013658 -14.135665 89.026268 20.544542 -0.213827 -72.654263 -89.43383 13.010003 3.852647 179.999011 75.750469 -0.0 -177.20915 44.97864 -180.0 4.46292 -46.92754 59.565728 -3.813942 33.502342 126.681215
-69.0572 83.2817 -18.221799999999998 81.960277 88.20527 89.08151 3.530319 -6.149305 -159.986514 -2.9344 -8.942523 160.176977 16.536501 22.615291 115.415157 -8.710153 22.542612 -125.938226 -0.002693 0.0 -0.001363 0.002819 0.0 0.000178 -155.577831 -3.999315 161.941896 142.477942 62.200749 143.637346 -63.57432 50.112448 99.943659 4.112966 -2.849686 2.501336 88.928267 -50.83183 37.599686 -154.810479 -10.850464 119.471356 20.934372 -37.332082 -5.933936 -167.742879 -28.390151 110.212903 12.027322 -37.299534 -3.219393 -163.333113 -4.559935 143.283927 0.000565 0.022621 0.006964 -140.3703 60.458342 154.521869 12.253108 41.425013 10.277868 -155.540199 38.113837 -148.179342 154.822905 -73.937929 179.841442 -103.630791 15.761372 106.256363 -89.424144 -33.109736 -71.825969 117.698223 68.49433 -95.353069 103.199469 36.331231 -60.111506 3.611825 -20.150803 -26.623153 50.38706 40.826051 -40.02465 85.469498 50.240648 -62.843131 36.036543 51.723049 -29.832214 -80.699954 -77.900252 -52.069699 72.966652 -72.143315 89.990005 -14.733755 1.754124 4.369887 13.276904 -25.411007 12.630776 -54.319855 84.810276 15.925984 -0.0 -0.000153 -0.001252 4.602457 -14.548051 84.025564 21.638882 4.499992 -89.497996 -35.419613 -13.766941 -3.731576 -0.004597 0.001668 -0.002298 2.332994 -31.074668 1.244387 11.273751 43.197699 53.119499 50.565817 -60.082084 -38.199676
